<svg width="2000" height="674" viewBox="0 0 2000 674" fill="none" xmlns="http://www.w3.org/2000/svg">
<path fill-rule="evenodd" fill="#F9F8FF" clip-rule="evenodd" d="M2000 620.897L1933.5 629.067C1848.14 638.053 1681.14 656.027 1512.29 638.053C1345.29 620.897 1176.43 566.977 1007.57 535.932C840.571 504.887 671.715 495.901 504.714 522.861C335.857 549.821 168.857 611.91 83.5005 642.955L-7.62939e-06 674V458.728V3.51667e-06C85.356 3.51667e-06 335.857 3.51667e-06 504.714 3.51667e-06C671.715 3.51667e-06 840.571 3.51667e-06 1007.57 3.51667e-06C1176.43 3.51667e-06 1345.29 3.51667e-06 1512.29 3.51667e-06C1681.14 3.51667e-06 1848.14 3.51667e-06 1933.5 3.51667e-06H2000V620.897Z"/>
</svg>
