<svg width="320" height="1241" viewBox="0 0 320 1241" fill="none" xmlns="http://www.w3.org/2000/svg">
<path fill-rule="evenodd" clip-rule="evenodd" d="M-194 97.9993L-155.667 82.9598C-116.481 66.4164 -39.8143 33.3295 37.7044 66.4164C114.371 97.9993 191.89 197.26 269.409 254.41C346.076 311.56 423.594 328.103 500.261 278.473C577.78 228.843 654.447 114.543 693.632 57.3927L731.966 0.242676V396.533V1241C692.78 1241 577.78 1241 500.261 1241C423.594 1241 346.076 1241 269.409 1241C191.89 1241 114.371 1241 37.7044 1241C-39.8143 1241 -116.481 1241 -155.667 1241H-194V97.9993Z" fill="#F9F8FF"/>
</svg>
