<svg width="320" height="827" viewBox="0 0 320 827" fill="none" xmlns="http://www.w3.org/2000/svg">
<path fill-rule="evenodd" clip-rule="evenodd" d="M577.574 761.842L552.024 771.867C525.906 782.893 474.805 804.947 423.137 782.893C372.036 761.842 320.368 695.682 268.699 657.59C217.598 619.498 165.93 608.472 114.829 641.552C63.1608 674.632 12.0602 750.816 -14.0579 788.908L-39.6083 827V562.861L-39.6083 0C-13.4901 0 63.1608 0 114.829 0C165.93 0 217.598 0 268.699 0C320.368 0 372.036 0 423.137 0C474.805 0 525.906 0 552.024 0H577.574L577.574 761.842Z" fill="#F9F8FF"/>
</svg>
